<?xml version="1.0" encoding="UTF-8"?>
<!DOCTYPE svg PUBLIC "-//W3C//DTD SVG 1.1//EN" "http://www.w3.org/Graphics/SVG/1.1/DTD/svg11.dtd">
<svg xmlns="http://www.w3.org/2000/svg" version="1.1" width="500px" height="500px" style="shape-rendering:geometricPrecision; text-rendering:geometricPrecision; image-rendering:optimizeQuality; fill-rule:evenodd; clip-rule:evenodd" xmlns:xlink="http://www.w3.org/1999/xlink">
<g><path style="opacity:0.909" fill="#fefffe" d="M 253.5,78.5 C 254.289,78.7828 254.956,79.2828 255.5,80C 243.394,104.44 225.06,122.44 200.5,134C 182.39,139.313 164.056,139.98 145.5,136C 134.682,134.087 123.849,132.254 113,130.5C 112.167,130.833 111.333,131.167 110.5,131.5C 111.833,156.167 111.833,180.833 110.5,205.5C 111.333,205.833 112.167,206.167 113,206.5C 125.092,204.179 137.259,202.346 149.5,201C 174.746,199.145 198.08,204.812 219.5,218C 221.086,222.122 219.586,224.622 215,225.5C 187.616,212.01 158.783,207.843 128.5,213C 122.774,214.057 117.107,215.39 111.5,217C 110.887,252.894 110.221,288.894 109.5,325C 118.173,322.206 127.173,320.372 136.5,319.5C 159.93,322.823 183.263,326.656 206.5,331C 223.277,333.52 237.443,328.686 249,316.5C 247.927,311.928 247.261,307.261 247,302.5C 248.422,298.551 251.255,296.551 255.5,296.5C 261.216,297.052 263.883,300.219 263.5,306C 256.889,333.944 239.556,351.278 211.5,358C 192.98,357.979 174.646,355.979 156.5,352C 140.477,348.975 124.477,348.975 108.5,352C 99.6051,354.779 91.6051,359.112 84.5,365C 75.7066,364.398 74.2066,360.565 80,353.5C 80.1719,309.125 80.6719,264.792 81.5,220.5C 80.6195,219.029 79.2861,218.196 77.5,218C 50.8288,217.253 30.3288,205.753 16,183.5C 3.43012,156.834 6.59679,132.334 25.5,110C 38.568,100.562 53.2347,96.0622 69.5,96.5C 76.1579,97.1105 82.8246,97.6105 89.5,98C 113.874,103.761 138.54,107.594 163.5,109.5C 184.454,108.927 204.454,105.093 223.5,98C 234.418,92.7208 244.418,86.2208 253.5,78.5 Z M 55.5,125.5 C 64.1667,125.5 72.8333,125.5 81.5,125.5C 81.5,153.167 81.5,180.833 81.5,208.5C 43.0006,208.156 26.5006,188.823 32,150.5C 34.2494,136.755 42.0827,128.421 55.5,125.5 Z"/></g>
<g><path style="opacity:0.919" fill="#fefffe" d="M 496.5,98.5 C 498.028,98.5173 498.528,99.184 498,100.5C 492.913,108.341 487.58,116.008 482,123.5C 475.5,130 469,136.5 462.5,143C 446.512,154.717 428.512,160.551 408.5,160.5C 389.414,158.821 370.414,156.488 351.5,153.5C 351.828,179.074 351.495,204.574 350.5,230C 364.837,229.99 379.17,229.49 393.5,228.5C 411.667,228.218 427.333,234.218 440.5,246.5C 442.373,252.286 440.373,254.786 434.5,254C 425.225,244.498 413.892,239.165 400.5,238C 383.775,237.151 367.109,237.818 350.5,240C 351.122,241.569 351.456,243.236 351.5,245C 350.696,280.822 350.196,316.655 350,352.5C 347.727,385.728 334.561,413.561 310.5,436C 291.41,449.74 270.077,453.407 246.5,447C 232.372,441.871 222.539,432.371 217,418.5C 215.509,410.007 216.843,402.007 221,394.5C 224.595,392.544 228.428,392.044 232.5,393C 237.069,395.541 238.569,399.375 237,404.5C 233.819,409.011 230.652,413.511 227.5,418C 232.947,430.081 242.28,437.414 255.5,440C 285.232,444.048 305.066,431.881 315,403.5C 317.297,396.312 318.964,388.978 320,381.5C 321.386,335.183 322.053,288.85 322,242.5C 304.384,241.184 288.217,235.684 273.5,226C 246.491,200.272 242.658,171.439 262,139.5C 275.438,126.014 291.771,119.347 311,119.5C 337.164,122.666 363.33,125.833 389.5,129C 429.46,132.935 465.126,122.768 496.5,98.5 Z M 293.5,148.5 C 303.125,148.603 312.625,148.603 322,148.5C 322.5,176.498 322.667,204.498 322.5,232.5C 310.042,232.045 298.376,228.879 287.5,223C 284.537,221.039 281.871,218.706 279.5,216C 279.833,215.667 280.167,215.333 280.5,215C 264.944,193.741 265.944,173.407 283.5,154C 286.767,151.87 290.1,150.037 293.5,148.5 Z"/></g>
</svg>
